<?xml version="1.0" encoding="iso-8859-1"?>
<!-- Generator: Adobe Illustrator 18.0.0, SVG Export Plug-In . SVG Version: 6.00 Build 0)  -->
<!DOCTYPE svg PUBLIC "-//W3C//DTD SVG 1.1//EN" "http://www.w3.org/Graphics/SVG/1.1/DTD/svg11.dtd">
<svg version="1.1" id="&#x30EC;&#x30A4;&#x30E4;&#x30FC;_1"
	 xmlns="http://www.w3.org/2000/svg" xmlns:xlink="http://www.w3.org/1999/xlink" x="0px" y="0px" viewBox="0 0 420 420"
	 style="enable-background:new 0 0 420 420;" xml:space="preserve">
<g>
	<path style="fill:#C9C9C9;" d="M0.577,0c138.445,0,276.89,0.026,415.335-0.123c4.232-0.005,4.768,1.075,4.765,4.954
		c-0.119,136.779-0.12,273.558,0,410.337c0.003,3.88-0.535,4.958-4.765,4.954C277.467,419.974,139.022,420,0.577,420
		C0.577,280,0.577,140,0.577,0z M369.551,244.878c2.057-0.01,3.614-0.811,3.975-2.966c0.436-2.605,0.687-5.24,1.019-7.862
		c0.028-0.645,0.055-1.29,0.083-1.934c1.403-4.328,1.632-8.859,1.79-13.314c1.647-46.367-12.681-87.264-44.737-120.762
		c-39.816-41.606-89.225-58.5-146.159-49.85C98.528,61.406,37.495,141.588,47.646,230.109c0.239,2.088,0.66,3.974,2.968,4.719
		c-0.023,0.367-0.046,0.734-0.068,1.101c-3.416,3.699-0.078,7.376,0.034,11.064c0.342,0.678,0.684,1.355,1.025,2.033
		c0.246,1.806,0.257,3.682,0.771,5.409c16.71,56.18,52.734,94.043,107.989,113.55c7.463,2.635,9.7,1.129,10.031-6.976
		c0.353-8.641,0.062-17.307,0.12-25.961c0.027-4.037-1.901-5.291-5.712-4.558c-4.603,0.886-9.29,0.763-13.944,0.615
		c-16.482-0.521-28.691-7.552-35.05-23.322c-3.828-9.493-9.593-17.443-18.168-23.247c-1.484-1.004-2.75-2.394-3.924-3.77
		c-0.799-0.936-0.903-2.224,0.035-3.206c1.824-1.91,4.234-1.643,6.555-1.513c0.9,0.051,1.718,0.51,1.25,1.59
		c-0.703,1.622-0.798,3.082,1.205,3.536c2.342,0.531,3.254-1.078,3.684-3.067l0.253-0.261c2.434,0.409,4.681,1.136,6.223,3.248
		c-1.226,1.469-4.321,1.188-3.085,3.916c0.654,1.444,2.402,1.574,3.431,0.741c3.728-3.017,5.531-0.539,7.332,2.265
		c-0.828,0.049-1.659,0.075-2.485,0.152c-1.493,0.139-3.148,0.149-3.401,2.141c-0.119,0.935,0.615,1.528,1.459,1.769
		c1.688,0.482,2.945-0.152,3.657-1.726c0.339-0.749,0.495-1.581,0.734-2.375c1.146,1.415,2.43,2.741,3.418,4.259
		c10.326,15.874,23.936,20.581,41.777,14.586c3.618-1.216,5.982-3.122,7.034-6.936c1.442-5.225,4.44-9.634,8.171-13.547
		c0.774-0.811,2.264-1.376,1.934-2.685c-0.399-1.582-2.087-1.4-3.348-1.566c-7.104-0.939-14.156-2.165-21.053-4.118
		c-17.695-5.01-33.723-12.835-44.222-28.71c-3.056-4.621-6.277-7.014-11.727-6.132c0.02-0.353,0.04-0.706,0.06-1.059
		c6.331-0.56,6.528-0.912,3.92-6.978c-0.611-0.687-1.221-1.374-1.832-2.06c0.11-3.212-0.868-6.248-1.46-9.354
		c-5.14-26.971-5.705-53.16,13.286-75.906c1.606-1.923,1.385-3.951,0.737-6.12c-3.754-12.567-2.574-24.972,0.848-37.432
		c1.378-5.017,4.143-6.898,9.039-6.222c2.141,0.295,4.315,0.489,6.403,1.01c10.794,2.691,20.657,7.55,29.876,13.626
		c4.054,2.672,7.811,3.476,12.635,2.352c24.191-5.632,48.557-5.717,72.912-1.106c4.394,0.832,7.915,0.317,11.728-2.131
		c10.71-6.877,21.992-12.601,34.827-14.433c6.192-0.884,7.784,0.074,9.544,5.932c3.305,10.995,4.815,22.139,2.284,33.533
		c-0.639,2.879-0.788,5.466,1.466,7.904c13.925,15.06,19.075,33.285,18.607,53.33c-0.217,9.314-0.886,18.627-2.489,27.846
		c-0.474,2.724-1.298,5.834,2.671,6.969c-0.024,0.364-0.048,0.728-0.073,1.092c-5.514,0.915-6.675,2.575-5.002,7.153
		c-0.031,0.524-0.062,1.048-0.093,1.571c-2.641,0.425-3.815,2.43-4.934,4.529c-6.307,11.822-16.161,19.644-28.144,25.158
		c-11.802,5.43-24.358,7.841-37.086,9.651c-1.121,0.159-2.487-0.077-3.14,1.112c-0.634,1.153,0.458,1.788,1.137,2.46
		c8.493,8.411,11.37,18.873,11.329,30.481c-0.049,13.989-0.09,27.98,0.117,41.966c0.117,7.905,2.683,9.434,9.944,6.579
		c28.916-11.372,52.762-29.452,71.561-54.173c13.278-17.461,22.561-36.874,28.006-58.113c0.592-2.311,1.834-4.995-1.632-6.356
		C369.587,245.587,369.569,245.232,369.551,244.878z M194.481,340.017c-0.025,0-0.05,0-0.075,0c0-8.818,0.028-17.637-0.032-26.455
		c-0.008-1.217,0.329-2.991-1.55-3.164c-1.334-0.123-1.825,1.281-2.328,2.301c-1.504,3.054-1.936,6.336-1.933,9.702
		c0.009,8.819,0.121,17.639-0.028,26.455c-0.12,7.115,0.957,14.333-1.523,21.29c-0.57,1.6-1.183,3.332,1.143,4.112
		c2.093,0.702,3.557-0.203,4.494-2.071c1.373-2.738,1.836-5.675,1.834-8.71C194.477,355.658,194.481,347.838,194.481,340.017z
		 M219.914,372.384c-0.166-2.658-0.295-5.318-0.504-7.972c-1.388-17.636-0.542-35.308-0.913-52.96
		c-0.04-1.9,0.339-4.648-2.472-4.619c-2.798,0.028-2.343,2.771-2.411,4.673c-0.726,20.295,1.315,40.653-1.417,60.903
		c-0.372,2.756,1.328,3.496,3.64,3.485C218.193,375.883,220.265,375.48,219.914,372.384z M245.302,369.81
		c-1.949-6.338-1.684-13.168-1.684-19.977c0-8.638-0.041-17.275-0.028-25.913c0.005-3.355-0.298-6.656-1.683-9.744
		c-0.649-1.447-1.027-3.863-2.909-3.534c-2.045,0.358-1.289,2.763-1.293,4.288c-0.037,16.279-0.034,32.558,0.083,48.836
		c0.018,2.458,0.473,4.962,1.087,7.352c0.597,2.326,2.589,2.212,4.492,1.821C244.904,372.623,245.708,371.764,245.302,369.81z
		 M123.953,297.626c-0.056-1.227-0.76-1.881-1.857-2.014c-1.272-0.155-2.422,0.209-2.572,1.683c-0.12,1.182,0.745,1.822,1.822,1.964
		C122.617,299.427,123.657,299.043,123.953,297.626z M134.534,307.881c-1.25,0.075-2.306,0.563-2.275,1.942
		c0.031,1.399,1.128,1.868,2.379,1.767c1.021-0.082,1.927-0.578,2.03-1.702C136.802,308.427,135.801,307.969,134.534,307.881z
		 M146.714,313.407c-0.308-1.348-1.339-1.74-2.536-1.673c-1.033,0.058-1.978,0.62-1.914,1.754c0.093,1.628,1.297,2.101,2.741,1.903
		C146.075,315.244,146.716,314.582,146.714,313.407z M154.849,315.465c0.806-0.252,1.84-0.599,1.812-1.828
		c-0.033-1.454-1.111-1.984-2.402-1.932c-1.076,0.043-2.035,0.579-2.013,1.779C152.273,314.926,153.347,315.395,154.849,315.465z
		 M126.935,302.282c-1.054,0.115-2.064,0.467-2.076,1.676c-0.015,1.546,1.203,1.812,2.435,1.787
		c1.068-0.022,2.055-0.447,2.072-1.649C129.387,302.546,128.164,302.34,126.935,302.282z M166.734,311.593
		c-0.27-1.42-1.305-1.78-2.561-1.658c-1.091,0.106-1.935,0.732-1.828,1.897c0.132,1.445,1.278,1.84,2.526,1.722
		C165.952,313.451,166.661,312.8,166.734,311.593z"/>
	<path style="fill:#FEFEFE;" d="M0.577,0c0,140,0,280,0,420c-2.067-0.9-0.938-2.703-0.939-4c-0.071-51.5-0.061-103-0.061-154.5
		c0-85.667-0.007-171.333,0.062-257C-0.359,3.036-1.514,1.109,0.577,0z"/>
	<path style="fill:#FEFEFE;" d="M50.615,234.826c-2.31-0.743-2.73-2.629-2.969-4.717C37.495,141.588,98.528,61.406,185.523,48.19
		c56.934-8.65,106.343,8.244,146.159,49.85c32.056,33.497,46.383,74.395,44.737,120.762c-0.158,4.455-0.387,8.986-1.791,13.313
		c-15.7-1.707-31.379-2.017-47.011,0.715c-3.971-1.132-3.146-4.243-2.672-6.967c1.603-9.218,2.271-18.532,2.489-27.846
		c0.468-20.045-4.682-38.27-18.607-53.33c-2.255-2.439-2.106-5.025-1.466-7.904c2.53-11.394,1.02-22.538-2.284-33.533
		c-1.761-5.858-3.353-6.816-9.544-5.932c-12.835,1.832-24.117,7.556-34.827,14.433c-3.813,2.448-7.334,2.963-11.728,2.131
		c-24.355-4.611-48.721-4.526-72.912,1.106c-4.824,1.123-8.581,0.32-12.635-2.352c-9.219-6.077-19.082-10.936-29.876-13.626
		c-2.089-0.521-4.262-0.714-6.403-1.01c-4.896-0.675-7.662,1.205-9.039,6.222c-3.422,12.46-4.601,24.865-0.848,37.432
		c0.648,2.169,0.869,4.196-0.737,6.12c-18.992,22.746-18.426,48.935-13.286,75.906c0.592,3.105,1.57,6.142,1.459,9.353
		c-5.483-0.101-10.953-0.346-16.432-0.676C75.641,231.595,63.029,231.951,50.615,234.826z"/>
	<path style="fill:#FEFEFE;" d="M369.605,245.941c3.466,1.361,2.224,4.045,1.632,6.356c-5.444,21.239-14.728,40.652-28.006,58.113
		c-18.799,24.721-42.645,42.801-71.561,54.173c-7.261,2.856-9.827,1.326-9.944-6.579c-0.207-13.986-0.166-27.978-0.117-41.966
		c0.041-11.608-2.837-22.07-11.329-30.481c-0.678-0.672-1.77-1.307-1.137-2.46c0.653-1.188,2.02-0.952,3.14-1.112
		c12.728-1.81,25.284-4.22,37.086-9.651c11.984-5.514,21.838-13.336,28.144-25.158c1.12-2.099,2.293-4.104,4.935-4.526
		C338.224,242.945,354.027,242.837,369.605,245.941z"/>
	<path style="fill:#FEFEFE;" d="M120.601,288.018c-1.802-2.804-3.605-5.282-7.333-2.265c-1.029,0.833-2.776,0.704-3.431-0.741
		c-1.236-2.728,1.859-2.447,3.085-3.916c-1.542-2.112-3.789-2.84-6.224-3.247c-0.001,0.002-0.251,0.011-0.251,0.011l-0.001,0.248
		c-0.43,1.989-1.343,3.599-3.684,3.067c-2.003-0.455-1.908-1.915-1.205-3.536c0.468-1.08-0.349-1.539-1.25-1.59
		c-2.321-0.131-4.731-0.397-6.555,1.513c-0.938,0.982-0.834,2.27-0.035,3.206c1.174,1.376,2.44,2.766,3.924,3.77
		c8.575,5.804,14.34,13.754,18.168,23.247c6.359,15.77,18.569,22.801,35.05,23.322c4.654,0.147,9.34,0.271,13.944-0.615
		c3.811-0.734,5.739,0.521,5.712,4.558c-0.058,8.654,0.233,17.32-0.12,25.961c-0.331,8.105-2.568,9.61-10.031,6.976
		c-55.255-19.507-91.279-57.371-107.989-113.55c-0.514-1.727-0.525-3.603-0.771-5.409c10.655-1.818,21.305-3.598,32.082-4.664
		c6.286-0.622,12.671,0.537,18.862-1.231c5.45-0.884,8.671,1.509,11.728,6.13c10.499,15.874,26.527,23.7,44.222,28.71
		c6.897,1.953,13.949,3.179,21.053,4.118c1.261,0.167,2.948-0.016,3.348,1.566c0.331,1.309-1.16,1.874-1.934,2.685
		c-3.732,3.913-6.729,8.323-8.171,13.547c-1.053,3.814-3.416,5.72-7.034,6.936c-17.842,5.995-31.452,1.288-41.777-14.586
		c-0.988-1.518-2.272-2.844-3.418-4.259L120.601,288.018z"/>
	<path style="fill:#FEFEFE;" d="M106.53,235.093c2.608,6.065,2.41,6.418-3.92,6.977c-1.829-0.028-3.658-0.057-5.488-0.084
		c-15.72-0.239-31.117,2.51-46.542,5.008c-0.112-3.688-3.45-7.365-0.034-11.063C69.175,233.503,87.849,234.099,106.53,235.093z"/>
	<path style="fill:#FEFEFE;" d="M374.545,234.049c-0.331,2.622-0.582,5.258-1.019,7.862c-0.361,2.156-1.918,2.957-3.975,2.967
		c-2.071-0.601-4.113-1.343-6.218-1.781c-13.487-2.804-27.154-2.17-40.793-2.022c-1.673-4.579-0.512-6.239,5.002-7.153
		C343.213,233.095,358.883,232.008,374.545,234.049z"/>
	<path style="fill:#FEFEFE;" d="M194.481,340.017c0,7.82-0.004,15.641,0.002,23.461c0.003,3.035-0.461,5.972-1.834,8.71
		c-0.937,1.868-2.401,2.773-4.494,2.071c-2.326-0.78-1.714-2.512-1.143-4.112c2.48-6.958,1.403-14.175,1.523-21.29
		c0.149-8.816,0.037-17.636,0.028-26.455c-0.003-3.366,0.428-6.648,1.933-9.702c0.503-1.021,0.994-2.424,2.328-2.301
		c1.88,0.173,1.542,1.947,1.55,3.164c0.06,8.818,0.032,17.637,0.032,26.455C194.431,340.017,194.456,340.017,194.481,340.017z"/>
	<path style="fill:#FEFEFE;" d="M219.914,372.384c0.352,3.096-1.721,3.499-4.077,3.509c-2.311,0.01-4.011-0.73-3.64-3.485
		c2.732-20.25,0.692-40.609,1.417-60.903c0.068-1.901-0.387-4.644,2.411-4.673c2.811-0.028,2.432,2.72,2.472,4.619
		c0.37,17.652-0.476,35.325,0.913,52.96C219.619,367.066,219.748,369.726,219.914,372.384z"/>
	<path style="fill:#FEFEFE;" d="M245.302,369.81c0.405,1.954-0.398,2.813-1.935,3.129c-1.903,0.391-3.895,0.505-4.492-1.821
		c-0.614-2.39-1.069-4.894-1.087-7.352c-0.116-16.278-0.119-32.557-0.083-48.836c0.003-1.525-0.753-3.93,1.293-4.288
		c1.882-0.329,2.259,2.087,2.909,3.534c1.386,3.088,1.688,6.389,1.683,9.744c-0.013,8.638,0.028,17.275,0.028,25.913
		C243.618,356.642,243.354,363.472,245.302,369.81z"/>
	<path style="fill:#D9D9D9;" d="M106.53,235.093c-18.68-0.994-37.355-1.59-55.984,0.837c0.023-0.368,0.045-0.735,0.069-1.103
		c12.415-2.876,25.027-3.233,37.651-2.471c5.479,0.33,10.949,0.575,16.432,0.676C105.309,233.72,105.919,234.407,106.53,235.093z"/>
	<path style="fill:#D9D9D9;" d="M50.579,246.994c15.425-2.498,30.823-5.247,46.542-5.008c1.829,0.028,3.658,0.056,5.488,0.084
		c-0.02,0.354-0.04,0.707-0.06,1.061c-6.192,1.769-12.577,0.61-18.863,1.232c-10.776,1.066-21.427,2.846-32.082,4.664
		C51.263,248.349,50.921,247.672,50.579,246.994z"/>
	<path style="fill:#D9D9D9;" d="M322.541,241.077c13.639-0.148,27.306-0.783,40.793,2.022c2.105,0.438,4.147,1.18,6.218,1.781
		c0.017,0.354,0.035,0.708,0.053,1.062c-15.578-3.104-31.38-2.996-47.156-3.29C322.479,242.124,322.51,241.6,322.541,241.077z"/>
	<path style="fill:#D9D9D9;" d="M374.545,234.049c-15.662-2.042-31.332-0.954-47.002-0.126c0.024-0.364,0.048-0.728,0.073-1.094
		c15.633-2.733,31.311-2.423,47.012-0.716C374.6,232.76,374.573,233.405,374.545,234.049z"/>
	<path style="fill:#FEFEFE;" d="M120.564,287.979c-0.239,0.794-0.395,1.626-0.734,2.375c-0.712,1.574-1.969,2.209-3.657,1.726
		c-0.845-0.241-1.578-0.835-1.459-1.769c0.254-1.992,1.908-2.002,3.401-2.141c0.826-0.077,1.657-0.103,2.485-0.152
		C120.601,288.018,120.564,287.979,120.564,287.979z"/>
	<path style="fill:#FEFEFE;" d="M123.953,297.626c-0.296,1.418-1.336,1.801-2.607,1.633c-1.077-0.142-1.942-0.782-1.822-1.964
		c0.15-1.474,1.3-1.838,2.572-1.683C123.193,295.745,123.896,296.399,123.953,297.626z"/>
	<path style="fill:#FEFEFE;" d="M134.539,307.881c1.262,0.089,2.263,0.547,2.13,2.008c-0.103,1.125-1.009,1.621-2.03,1.702
		c-1.251,0.1-2.348-0.368-2.379-1.767C132.229,308.444,133.284,307.956,134.539,307.881z"/>
	<path style="fill:#FEFEFE;" d="M146.714,313.407c0.002,1.175-0.64,1.837-1.709,1.984c-1.444,0.198-2.648-0.275-2.741-1.903
		c-0.065-1.134,0.881-1.696,1.914-1.754C145.375,311.666,146.406,312.059,146.714,313.407z"/>
	<path style="fill:#FEFEFE;" d="M154.849,315.465c-1.502-0.07-2.576-0.539-2.603-1.981c-0.022-1.2,0.936-1.736,2.013-1.779
		c1.291-0.051,2.369,0.478,2.402,1.932C156.689,314.865,155.655,315.212,154.849,315.465z"/>
	<path style="fill:#FEFEFE;" d="M126.941,302.279c1.223,0.061,2.447,0.267,2.425,1.817c-0.017,1.202-1.004,1.627-2.072,1.649
		c-1.232,0.025-2.45-0.241-2.435-1.787C124.871,302.749,125.881,302.397,126.941,302.279z"/>
	<path style="fill:#FEFEFE;" d="M166.734,311.593c-0.073,1.207-0.781,1.858-1.864,1.961c-1.247,0.118-2.394-0.277-2.526-1.722
		c-0.106-1.165,0.737-1.79,1.828-1.897C165.429,309.812,166.464,310.173,166.734,311.593z"/>
	<polygon style="fill:#C9C9C9;" points="106.446,278.109 106.447,277.861 106.698,277.85 	"/>
</g>
<g>
	<path style="fill:#F7F8F8;" d="M171.396,152.555l-0.32,4.144c-1.148,0-2.022,0.1-2.623,0.3c-0.467,0.16-0.935,0.447-1.401,0.861
		c1.228,1.268,1.842,2.77,1.842,4.504c0,2.456-0.935,4.358-2.803,5.706c-1.575,1.148-3.59,1.722-6.046,1.722
		c-1.041,0-2.016-0.126-2.923-0.38c-1.095,0.547-1.642,1.201-1.642,1.962c0,0.534,0.227,0.915,0.681,1.141
		c0.454,0.227,1.268,0.394,2.442,0.5l5.085,0.42c3.016,0.294,5.131,0.988,6.346,2.082c0.961,0.895,1.441,2.142,1.441,3.744
		c0,2.175-1.101,3.89-3.303,5.145c-2.016,1.134-4.685,1.702-8.008,1.702c-3.417,0-6.033-0.567-7.848-1.702
		c-1.521-0.961-2.282-2.216-2.282-3.764c0-1.922,1.381-3.383,4.144-4.384c-2.109-0.467-3.163-1.548-3.163-3.243
		c0-1.668,1.147-3.223,3.443-4.665c-2.136-1.361-3.203-3.343-3.203-5.946c0-2.322,0.934-4.15,2.803-5.485
		c1.588-1.161,3.597-1.742,6.026-1.742c1.855,0,3.45,0.36,4.785,1.081c0.787-1.428,1.722-2.416,2.803-2.963
		C168.619,152.802,169.86,152.555,171.396,152.555z M157.282,176.878c-2.016,0.641-3.023,1.662-3.023,3.063
		c0,1.041,0.641,1.842,1.922,2.402c1.094,0.48,2.516,0.721,4.264,0.721c2.242,0,3.957-0.334,5.145-1.001
		c0.947-0.534,1.421-1.195,1.421-1.982c0-0.854-0.307-1.468-0.921-1.842c-0.614-0.36-1.688-0.621-3.223-0.781L157.282,176.878z
		 M160.064,158.22c-1.268,0-2.289,0.414-3.063,1.241c-0.681,0.748-1.021,1.702-1.021,2.863c0,1.508,0.434,2.656,1.301,3.443
		c0.721,0.654,1.648,0.981,2.783,0.981c1.308,0,2.335-0.42,3.083-1.261c0.681-0.787,1.021-1.828,1.021-3.123
		c0-1.361-0.447-2.429-1.341-3.203C162.093,158.534,161.172,158.22,160.064,158.22z"/>
	<path style="fill:#F7F8F8;" d="M181.165,146.369v5.285h-5.585v-5.285H181.165z M180.945,155.678v22.502h-5.165v-22.502H180.945z"/>
	<path style="fill:#F7F8F8;" d="M193.697,148.331v7.347h5.045v3.764h-5.045v12.352c0,2.162,0.927,3.243,2.783,3.243
		c1.001,0,1.875-0.086,2.623-0.26l-0.2,3.684c-1.135,0.173-2.476,0.26-4.024,0.26c-2.282,0-3.924-0.547-4.925-1.642
		c-0.895-0.974-1.341-2.422-1.341-4.344v-13.293h-3.363v-3.764h3.363v-6.186L193.697,148.331z"/>
	<path style="fill:#F7F8F8;" d="M208.292,145.788v13.693c2.015-2.843,4.424-4.264,7.227-4.264c2.042,0,3.65,0.661,4.825,1.982
		c1.067,1.201,1.602,2.783,1.602,4.745v16.236h-5.285v-14.754c0-2.522-1.041-3.784-3.123-3.784c-0.961,0-1.949,0.4-2.963,1.201
		c-0.868,0.681-1.628,1.568-2.282,2.663v14.674h-5.165v-32.392H208.292z"/>
	<path style="fill:#F7F8F8;" d="M247.17,155.678v22.502h-5.005v-3.884c-0.868,1.468-1.996,2.603-3.384,3.403
		c-1.228,0.707-2.536,1.061-3.924,1.061c-2.042,0-3.657-0.627-4.845-1.882c-1.107-1.188-1.661-2.776-1.661-4.765v-16.436h5.285
		v14.955c0,2.469,1.054,3.704,3.163,3.704c1.014,0,2.042-0.414,3.083-1.241c0.881-0.707,1.588-1.582,2.122-2.623v-14.794H247.17z"/>
	<path style="fill:#F7F8F8;" d="M258.941,145.788v13.133c0.761-1.241,1.741-2.195,2.942-2.863c1.027-0.561,2.108-0.841,3.243-0.841
		c2.723,0,4.852,1.101,6.387,3.303c1.428,2.056,2.142,4.825,2.142,8.308c0,3.951-0.987,7.034-2.963,9.249
		c-1.588,1.789-3.537,2.683-5.846,2.683c-2.883,0-4.984-1.354-6.306-4.064l-1.041,3.483h-3.684v-32.392H258.941z M258.941,163.105
		v7.908c1.081,2.509,2.596,3.764,4.544,3.764c1.548,0,2.756-0.721,3.624-2.162c0.841-1.375,1.261-3.276,1.261-5.706
		c0-2.709-0.5-4.731-1.501-6.066c-0.788-1.067-1.815-1.602-3.083-1.602C261.704,159.241,260.089,160.529,258.941,163.105z"/>
	<path style="fill:#F7F8F8;" d="M159.174,235.516l-5.245,0.08c-0.214,0-0.347-0.026-0.4-0.08c-0.04-0.054-0.06-0.174-0.06-0.36
		v-3.184c0-0.213,0.026-0.34,0.08-0.38c0.053-0.04,0.18-0.061,0.38-0.061l5.245,0.08h9.469v-5.825h-5.866l-5.666,0.08
		c-0.267,0-0.4-0.146-0.4-0.44v-3.264c0-0.293,0.133-0.44,0.4-0.44l5.666,0.08h5.866v-1.441c0-2.148-0.094-3.77-0.28-4.864
		c1.788,0.04,3.29,0.134,4.504,0.28c0.44,0.04,0.661,0.193,0.661,0.46c0,0.147-0.047,0.341-0.14,0.581
		c-0.094,0.227-0.147,0.387-0.16,0.48c-0.134,0.641-0.2,1.635-0.2,2.982v1.521h6.566l5.646-0.08c0.28,0,0.42,0.147,0.42,0.44v3.264
		c0,0.294-0.14,0.44-0.42,0.44l-5.646-0.08h-6.566v5.825h10.09l5.245-0.08c0.24,0,0.38,0.027,0.42,0.08
		c0.04,0.054,0.06,0.174,0.06,0.36v3.184c0,0.2-0.023,0.323-0.07,0.37s-0.184,0.07-0.41,0.07l-5.245-0.08h-8.208
		c1.882,2.442,4.291,4.704,7.227,6.786c2.629,1.882,5.372,3.391,8.228,4.524c-0.761,0.721-1.468,1.716-2.122,2.983
		c-0.267,0.627-0.5,0.94-0.701,0.94c-0.107,0-0.434-0.134-0.981-0.4c-5.792-3.069-10.344-7.113-13.653-12.132
		c0.013,1.175,0.06,4.244,0.14,9.209c0.04,2.709,0.06,4.432,0.06,5.164c0,0.215-0.027,0.348-0.08,0.4
		c-0.054,0.041-0.174,0.061-0.36,0.061h-3.704c-0.214,0-0.34-0.033-0.38-0.1c-0.04-0.041-0.06-0.16-0.06-0.361
		c0-0.373,0.04-2.415,0.12-6.125c0.066-3.243,0.106-5.966,0.12-8.168c-3.083,4.685-7.414,8.669-12.993,11.952
		c-0.48,0.307-0.794,0.46-0.941,0.46c-0.187,0-0.434-0.327-0.741-0.98c-0.494-1.067-1.148-2.009-1.962-2.823
		c5.939-2.695,10.69-6.492,14.254-11.391H159.174z"/>
	<path style="fill:#F7F8F8;" d="M231.765,247.547c-0.561,0.774-0.928,1.749-1.101,2.923c-0.134,0.693-0.268,1.088-0.4,1.182
		c-0.12,0.105-0.494,0.173-1.121,0.199c-4.524,0.254-9.303,0.381-14.334,0.381c-4.632,0-7.835-0.367-9.61-1.102
		c-1.896-0.787-3.343-2.021-4.344-3.703c-1.041,1.041-2.342,2.189-3.904,3.443c-0.374,0.28-0.674,0.566-0.901,0.861
		c-0.16,0.279-0.347,0.42-0.561,0.42c-0.2,0-0.407-0.193-0.621-0.58c-0.44-0.801-0.975-2.016-1.602-3.644
		c0.947-0.454,1.755-0.895,2.422-1.321c0.974-0.641,2.028-1.502,3.163-2.583v-9.148h-1.722l-2.923,0.1c-0.24,0-0.38-0.033-0.42-0.1
		c-0.04-0.054-0.06-0.187-0.06-0.4v-3.123c0-0.214,0.026-0.341,0.08-0.381c0.053-0.04,0.187-0.06,0.4-0.06l2.923,0.08h2.322
		l3.003-0.08c0.213,0,0.347,0.026,0.4,0.08c0.04,0.054,0.06,0.174,0.06,0.36l-0.08,3.983v8.889c0.801,1.575,1.988,2.703,3.563,3.384
		c1.321,0.547,3.904,0.82,7.748,0.82C220.207,248.428,226.079,248.135,231.765,247.547z M197.932,216.978
		c2.042,1.896,3.77,3.931,5.185,6.105c0.08,0.134,0.12,0.228,0.12,0.28c0,0.107-0.134,0.261-0.4,0.461l-2.202,1.802
		c-0.214,0.16-0.38,0.24-0.5,0.24c-0.134,0-0.254-0.094-0.36-0.28c-1.575-2.563-3.257-4.698-5.045-6.406
		c-0.134-0.12-0.2-0.221-0.2-0.301c0-0.106,0.133-0.24,0.4-0.4l2.142-1.461c0.227-0.16,0.394-0.24,0.5-0.24
		C197.665,216.777,197.785,216.844,197.932,216.978z M210.384,243.983l-5.625,0.08c-0.24,0-0.387-0.026-0.44-0.08
		c-0.04-0.053-0.06-0.173-0.06-0.36v-2.643c0-0.213,0.033-0.34,0.1-0.38c0.053-0.04,0.187-0.061,0.4-0.061l5.625,0.08h4.645v-2.302
		h-2.963l-5.425,0.08c-0.267,0-0.4-0.146-0.4-0.44l0.08-3.684v-5.506l-0.08-3.684c0-0.24,0.026-0.387,0.08-0.44
		c0.04-0.04,0.146-0.06,0.32-0.06l5.425,0.1h2.963v-2.222h-4.484l-5.585,0.08c-0.214,0-0.347-0.026-0.4-0.08
		c-0.04-0.054-0.06-0.174-0.06-0.36V219.5c0-0.214,0.033-0.341,0.1-0.381c0.04-0.04,0.16-0.06,0.36-0.06l5.585,0.08h4.484
		c-0.04-1.121-0.153-2.269-0.34-3.443c1.321,0,2.683,0.08,4.084,0.24c0.427,0.054,0.641,0.207,0.641,0.46
		c0,0.12-0.08,0.367-0.24,0.741c-0.174,0.36-0.261,1.027-0.261,2.002h5.105l5.625-0.08c0.214,0,0.341,0.026,0.381,0.08
		s0.06,0.174,0.06,0.36v2.603c0,0.214-0.026,0.34-0.08,0.38s-0.174,0.061-0.36,0.061l-5.625-0.08h-5.105v2.222h3.203l5.386-0.1
		c0.213,0,0.34,0.033,0.38,0.1c0.04,0.054,0.061,0.188,0.061,0.4l-0.061,3.684v5.506l0.061,3.684c0,0.2-0.023,0.323-0.07,0.37
		s-0.17,0.07-0.37,0.07l-5.386-0.08h-3.203v2.302h5.306l5.665-0.08c0.214,0,0.341,0.027,0.381,0.08c0.04,0.054,0.06,0.174,0.06,0.36
		v2.643c0,0.2-0.023,0.324-0.07,0.371s-0.17,0.069-0.37,0.069l-5.665-0.08h-5.306l0.08,3.203c0,0.294-0.146,0.44-0.44,0.44h-3.163
		c-0.32,0-0.48-0.146-0.48-0.44c0-0.013,0.014-0.34,0.04-0.98c0.026-0.681,0.054-1.422,0.08-2.223H210.384z M210.043,230.01h4.985
		v-2.382h-4.985V230.01z M210.043,235.415h4.985v-2.582h-4.985V235.415z M224.058,227.628h-5.146v2.382h5.146V227.628z
		 M224.058,235.415v-2.582h-5.146v2.582H224.058z"/>
	<path style="fill:#F7F8F8;" d="M246.099,224.685c1.815-1.574,3.33-3.51,4.545-5.806c0.573-1.134,0.927-2.155,1.061-3.063
		c1.295,0.227,2.402,0.514,3.323,0.86c0.467,0.174,0.701,0.381,0.701,0.621c0,0.187-0.127,0.374-0.381,0.561
		s-0.634,0.761-1.141,1.722l-0.28,0.58h5.045c0.573-1.027,0.954-1.848,1.141-2.462c0.24-0.561,0.394-1.147,0.461-1.762
		c1.602,0.267,2.749,0.5,3.443,0.7c0.44,0.134,0.66,0.308,0.66,0.521c0,0.214-0.1,0.395-0.3,0.541c-0.174,0.16-0.388,0.46-0.641,0.9
		c-0.24,0.494-0.501,1.015-0.781,1.562h2.783l4.784-0.08c0.307,0,0.461,0.134,0.461,0.4v2.103c0,0.214-0.027,0.34-0.08,0.38
		c-0.054,0.04-0.181,0.061-0.381,0.061l-4.784-0.08h-3.003v1.861h0.38l6.146-0.08c0.213,0,0.34,0.027,0.38,0.08
		c0.04,0.054,0.061,0.174,0.061,0.36v1.822c0,0.214-0.027,0.34-0.08,0.38c-0.054,0.04-0.174,0.061-0.36,0.061l-6.146-0.08h-0.38
		v1.842h0.3l6.187-0.08c0.213,0,0.34,0.026,0.38,0.08s0.061,0.174,0.061,0.36v1.821c0,0.214-0.027,0.341-0.08,0.381
		c-0.054,0.04-0.174,0.06-0.36,0.06l-6.187-0.08h-0.3v1.922h2.923l5.365-0.08c0.267,0,0.4,0.147,0.4,0.44v2.103
		c0,0.267-0.134,0.4-0.4,0.4l-5.365-0.04h-10.41l-5.466,0.04c-0.294,0-0.44-0.134-0.44-0.4l0.08-4.505v-5.125l-0.78,0.861
		c-0.24,0.24-0.44,0.36-0.601,0.36c-0.174,0-0.367-0.174-0.581-0.521c-0.334-0.561-0.787-1.107-1.361-1.642v1.441
		c0,0.214-0.026,0.34-0.08,0.38s-0.174,0.061-0.36,0.061l-2.542-0.08v6.506c1.201-0.427,2.442-0.9,3.724-1.421
		c-0.107,0.574-0.16,1.541-0.16,2.902c0,0.574-0.054,0.928-0.16,1.062c-0.08,0.106-0.314,0.227-0.701,0.36
		c-0.561,0.254-1.461,0.627-2.702,1.121v1.762l0.12,8.188c0,2.056-0.428,3.41-1.281,4.064c-0.774,0.6-2.196,0.9-4.265,0.9
		c-0.681,0-1.088-0.061-1.221-0.18c-0.134-0.121-0.247-0.469-0.341-1.041c-0.16-1.068-0.5-2.056-1.021-2.963
		c0.934,0.08,1.975,0.12,3.123,0.12c0.573,0,0.86-0.381,0.86-1.142v-8.328c-0.641,0.2-1.161,0.367-1.562,0.501
		c-0.614,0.2-1.095,0.447-1.441,0.74c-0.174,0.134-0.407,0.2-0.7,0.2c-0.24,0-0.414-0.166-0.521-0.5
		c-0.294-1.081-0.527-2.376-0.701-3.884c1.401-0.2,2.669-0.461,3.804-0.781c0.066-0.013,0.44-0.12,1.121-0.32v-7.867h-0.7
		l-3.563,0.08c-0.28,0-0.421-0.146-0.421-0.44v-3.003c0-0.307,0.141-0.461,0.421-0.461l3.563,0.08h0.7v-2.142
		c0-2.202-0.113-4.138-0.34-5.806c1.562,0.04,2.963,0.134,4.204,0.28c0.467,0.054,0.7,0.207,0.7,0.46c0,0.12-0.1,0.407-0.3,0.861
		c-0.16,0.32-0.24,1.695-0.24,4.124v2.222l2.542-0.08c0.214,0,0.341,0.027,0.381,0.08c0.04,0.054,0.06,0.181,0.06,0.381V224.685z
		 M252.325,241.562h-1.481l-4.104,0.08c-0.227,0-0.367-0.033-0.42-0.101c-0.04-0.053-0.061-0.18-0.061-0.38v-2.442
		c0-0.214,0.026-0.341,0.08-0.381c0.066-0.04,0.2-0.06,0.4-0.06l4.104,0.08h9.729l4.824-0.08c0.334,0,0.501,0.127,0.501,0.38
		c0,0.054-0.014,0.12-0.04,0.2c-0.134,0.374-0.314,0.861-0.541,1.462c-0.04,0.106-0.18,0.467-0.42,1.081
		c-0.147,0.4-0.268,0.728-0.36,0.98h3.483l2.542-0.04c0.28,0,0.421,0.107,0.421,0.32c0,0.04-0.007,0.074-0.021,0.101
		c-0.146,1.135-0.307,2.195-0.48,3.183c-0.36,2.002-0.714,3.471-1.061,4.404c-0.628,1.669-2.202,2.503-4.725,2.503
		c-1.255,0-2.329-0.027-3.224-0.08c-0.44-0.027-0.707-0.102-0.801-0.221c-0.08-0.107-0.174-0.42-0.28-0.941
		c-0.134-0.934-0.407-1.834-0.82-2.702c1.494,0.228,2.916,0.341,4.264,0.341c1.055,0,1.715-0.341,1.982-1.021
		c0.24-0.667,0.446-1.642,0.62-2.923h-3.083c-0.16,0.374-0.287,0.641-0.38,0.801c-0.134,0.294-0.348,0.44-0.641,0.44
		c-0.067,0-0.154-0.006-0.261-0.02l-2.442-0.421c-0.267-0.053-0.4-0.18-0.4-0.38c0-0.094,0.04-0.207,0.12-0.341
		c0.787-1.348,1.382-2.622,1.782-3.823h-4.705c-0.334,2.176-0.895,3.964-1.682,5.365c-0.907,1.668-2.275,3.076-4.104,4.224
		c-0.588,0.4-1.642,0.935-3.163,1.601c-0.48,0.215-0.795,0.32-0.941,0.32c-0.227,0-0.514-0.307-0.86-0.92
		c-0.48-0.854-1.068-1.608-1.762-2.262c2.775-0.787,4.824-1.889,6.146-3.304C251.25,245.305,252.005,243.63,252.325,241.562z
		 M258.892,224.805v-1.861h-5.666v1.861H258.892z M258.892,227.348h-5.666v1.842h5.666V227.348z M258.892,231.731h-5.666v1.922
		h5.666V231.731z"/>
</g>
</svg>
